<svg height="478" width="720" xmlns="http://www.w3.org/2000/svg">
<rect height="478" fill="#555" width="720"></rect>
<text fill="#7f7" font-family="Courier New" font-size="12" xml:space="preserve">
<tspan x="10" y="26">9 megabytes installed</tspan>
<tspan x="10" y="42"></tspan>
<tspan x="10" y="58">node_modules</tspan>
<tspan x="10" y="74">└─┬ closurecompiler@1.6.1 </tspan>
<tspan x="10" y="90">  ├─┬ bl@0.9.5 </tspan>
<tspan x="10" y="106">  │ └─┬ readable-stream@1.0.34 </tspan>
<tspan x="10" y="122">  │   ├── core-util-is@1.0.2 </tspan>
<tspan x="10" y="138">  │   ├── isarray@0.0.1 </tspan>
<tspan x="10" y="154">  │   └── string_decoder@0.10.31 </tspan>
<tspan x="10" y="170">  ├── closurecompiler-externs@1.0.4 </tspan>
<tspan x="10" y="186">  └─┬ tar@2.2.1 </tspan>
<tspan x="10" y="202">    ├── block-stream@0.0.9 </tspan>
<tspan x="10" y="218">    ├─┬ fstream@1.0.11 </tspan>
<tspan x="10" y="234">    │ ├── graceful-fs@4.1.11 </tspan>
<tspan x="10" y="250">    │ ├─┬ mkdirp@0.5.1 </tspan>
<tspan x="10" y="266">    │ │ └── minimist@0.0.8 </tspan>
<tspan x="10" y="282">    │ └─┬ rimraf@2.6.1 </tspan>
<tspan x="10" y="298">    │   └─┬ glob@7.1.1 </tspan>
<tspan x="10" y="314">    │     ├── fs.realpath@1.0.0 </tspan>
<tspan x="10" y="330">    │     ├─┬ inflight@1.0.6 </tspan>
<tspan x="10" y="346">    │     │ └── wrappy@1.0.2 </tspan>
<tspan x="10" y="362">    │     ├─┬ minimatch@3.0.3 </tspan>
<tspan x="10" y="378">    │     │ └─┬ brace-expansion@1.1.7 </tspan>
<tspan x="10" y="394">    │     │   ├── balanced-match@0.4.2 </tspan>
<tspan x="10" y="410">    │     │   └── concat-map@0.0.1 </tspan>
<tspan x="10" y="426">    │     ├── once@1.4.0 </tspan>
<tspan x="10" y="442">    │     └── path-is-absolute@1.0.1 </tspan>
<tspan x="10" y="458">    └── inherits@2.0.3</tspan>
</text>
</svg>
